# xmcd
# 
# Track frame offsets:
#     150
#     17322
#     37181
#     51812
#     70249
#     85955
#     104540
#     121891
#     135148
#     147793
#     165600
#     182279
#     197532
#     215556
# 
# Disc length: 3045
# 
# Revision: 3
# Processed by: cddbd v1.5.2PL0 Copyright (c) Steve Scherf et al.
# Submitted via: BonkEnc v1.0
# 
DISCID=b70be30e
DTITLE=Various Artist - Coutry Hits - CD 1
DYEAR=2006
DGENRE=Country
TTITLE0=Alan Jackson - I'll Try
TTITLE1=John Michael Montgomery - I Swear
TTITLE2=Faith Hill - Take me as I am
TTITLE3=Leann Rimes - How do I live
TTITLE4=George Strait - I cross my heart
TTITLE5=Joice Newton - Angel of the Morning
TTITLE6=Kenny rogers - Lady
TTITLE7=Bonny Tailer - In my life
TTITLE8=Lucas Babin - Little Girl
TTITLE9=Barbra Zinger - Breathe
TTITLE10=The Ozark Mountain Daredevils - You Made It Right
TTITLE11=Billy Ray Cyrus - Achy Breaky Heart
TTITLE12=Tommy Shane Steiner - Havin" a Good Time
TTITLE13=Terri Clark - I Wanna do It All
EXTD=
EXTT0=
EXTT1=
EXTT2=
EXTT3=
EXTT4=
EXTT5=
EXTT6=
EXTT7=
EXTT8=
EXTT9=
EXTT10=
EXTT11=
EXTT12=
EXTT13=
PLAYORDER=
